# xmcd
#
# Track frame offsets:
#	150
#	15822
#	29209
#	46731
#	64431
#	76003
#	90919
#	108536
#	128710
#	147249
#	167237
#	185086
#	201085
#	212084
#
# Disc length: 3092 seconds
#
# Revision: 1
# Processed by: cddbd v1.5.1PL0 Copyright (c) Steve Scherf et al.
# Submitted via: audiograbber 1.83.01
#
DISCID=bd0c120e
DTITLE=The Armpit Jug Band - No Laughing Matter
DYEAR=2003
DGENRE=Skiffle
TTITLE0=Just Because
TTITLE1=Bad Moon Risin'
TTITLE2=Rockin' Chair Money
TTITLE3=Taint Nobody's Business
TTITLE4=Beedle um Bum
TTITLE5=Choo Choo Ch' Boogie
TTITLE6=Careless Love
TTITLE7=Ask Me No Questions
TTITLE8=All Worn Out
TTITLE9=St. Louis Blues
TTITLE10=Jug Band Man
TTITLE11=Coney Island Washboard
TTITLE12=She Wouldn't Give Me None
TTITLE13=Downtown Blues
EXTD=
EXTT0=
EXTT1=
EXTT2=
EXTT3=
EXTT4=
EXTT5=
EXTT6=
EXTT7=
EXTT8=
EXTT9=
EXTT10=
EXTT11=
EXTT12=
EXTT13=
PLAYORDER=
